<?xml version="1.0" encoding="UTF-8"?>
<svg id="Layer_1" data-name="Layer 1" xmlns="http://www.w3.org/2000/svg" viewBox="0 0 626.53 333.49">
  <defs>
    <style>
      .cls-1 {
        fill: #231f20;
        stroke-width: 0px;
      }
    </style>
  </defs>
  <path class="cls-1" d="m375.18,224.77c-.58,1.18-1.59,2.33-1.67,3.55-.23,3.32-.08,6.68-.08,10.02h.06c0,3.43-.19,6.87.1,10.28.11,1.34,1,3.3,2.05,3.73,1.81.75,2.77-1.12,3.25-2.63,2.37-7.52,2.39-15.07-.46-22.45-.42-1.09-2.12-1.68-3.23-2.49Z"/>
  <path class="cls-1" d="m202.37,114.5c3.77-.47,3.78-.47,3.79-4.43.03-20.65.06-41.29.08-61.94q0-4.14-4.23-3.65c-1.05.12-2.09.32-3.14.35-2.2.06-2.94,1.03-2.92,3.29.12,10.63.05,21.26.05,31.89h-.09c0,9.58,0,19.15,0,28.73q0,6.56,6.46,5.76Z"/>
  <path class="cls-1" d="m326.21,223.08c-1.66-2.49-4.64-2.43-6.45-.05-.99,1.29-1.79,2.86-2.22,4.42-2.68,9.64-2.66,19.47-1.36,29.28.44,3.32,1.43,6.77,3.01,9.7,2.27,4.19,6.65,3.81,8.73-.52.86-1.8,1.53-3.79,1.79-5.76.61-4.52.92-9.08,1.42-14.41-.59-4.86-1.07-10.46-2.03-15.98-.41-2.34-1.55-4.69-2.89-6.68Z"/>
  <path class="cls-1" d="m451.73,48.84c-1.58-.17-2.28.26-2.28,1.92,0,13.88-.04,27.75.02,41.63,0,.74.73,1.99,1.32,2.13,2.78.65,5.64.99,8.99,1.53,0-2.34,0-4.09,0-5.83.02-10.8.05-21.61.07-32.41.01-8.13,0-8.1-8.11-8.97Z"/>
  <path class="cls-1" d="m261.59,161.8c3.52-.25,3.57-.29,3.58-3.93.08-38.44.15-76.88.23-115.31,0-.62.22-1.37-.06-1.82-.47-.74-1.21-1.74-1.91-1.81-1.73-.17-3.51.28-5.26.2-2.61-.13-3.17,1.06-3.16,3.48.09,19.35.05,38.7.05,58.05h-.33c0,18.21,0,36.41,0,54.62q0,7,6.87,6.51Z"/>
  <path class="cls-1" d="m268.03,223.07c-1.92-3.07-5.15-3.17-7-.08-1.28,2.13-2.25,4.64-2.63,7.09-.87,5.54-1.3,11.15-1.74,15.23.28,4.97.24,8.43.74,11.8.54,3.62,1.3,7.27,2.55,10.69.52,1.4,2.55,3.04,3.96,3.1,1.43.06,3.28-1.41,4.33-2.71,1.11-1.37,1.75-3.27,2.13-5.04,2.52-11.59,2.41-23.21-.11-34.78-.4-1.85-1.23-3.69-2.24-5.3Z"/>
  <path class="cls-1" d="m608.93,99.37c-.4-3.46-.75-6.92-1.1-10.39-.53-5.21-.72-10.48-1.65-15.62-.76-4.21-1.76-8.61-3.78-12.31-2.14-3.91-5.59-7.12-8.53-10.58-.54-.64-1.32-1.19-2.1-1.51-5.93-2.48-11.86-4.97-17.86-7.3-3.32-1.29-6.69-2.68-10.16-3.34-6.02-1.14-12.08-2.09-18.14-3.03l.03.22c-7.76-1.22-21.93-3.56-38.9-6.4-.19-.03-.38-.06-.57-.1-52.28-8.76-130.59-22.18-130.59-22.18-10-1.18-16.84-.96-30.01-1.53l-1.67.1-145.08,6.72c-8.14,1.41-16.24,3.02-24.37,4.49-4.58.83-9.16,1.66-13.74,2.49-16.72,2.62-31.46,5.34-44.27,7.98-.12.02-.25.04-.37.07-.22.04-.43.09-.63.14-24.6,5.11-41.95,9.9-52.25,13.05-.54-.08-1.1-.06-1.51.08-2.82.92-5.55,2.1-8.33,3.13-1.03.36-1.55.56-1.55.56-7.93,2.67-15.89,5.28-23.86,7.81-4.01,1.27-6.3,3.8-6.7,8.04-.15,1.55-.31,3.15-.81,4.61-2.56,7.41-2.62,15.18-2.71,22.8-.14,12.18-.78,24.38.8,36.56.7,5.4-.08,10.98.18,16.46.31,6.54,1.3,13.05,1.47,19.58.37,14.66.42,29.33.57,43.99.03,2.99-.21,5.98-.1,8.97.17,4.96,1.36,9.6,4.51,13.63,2.38,3.05,4.68,6.17,6.87,9.35,1.01,1.47,2.16,2.03,3.94,1.99,8-.15,16.01-.14,24.01-.27,3.86-.06,7.83.2,11.56-.58,22.02-4.61,43.99-9.49,65.98-14.28,3.68-.8,7.36-1.6,11.33-2.46.14.86.26,1.28.28,1.7.64,14.41,1.49,28.81,1.82,43.22.31,13.19.1,26.39.03,39.58,0,1.98.48,3.49,1.94,4.9,3.35,3.24,6.61,6.57,9.78,9.99,1.82,1.96,3.7,3.46,6.55,3.2l.77.04,14.48.74h11.31l7.97-1.59c.55-.21,1.19-.32,1.87-.45,16.82-3.3,33.62-6.74,50.47-9.9,9.31-1.75,18.67-3.36,28.08-4.4,7.06-.78,14.23-.5,21.35-.84,0,0,.87.12,2.45.34,7.42,1.07,30.9,4.65,57.43,10.75,22.62,5.22,31.31,6.96,31.31,6.96l16.43,1.87,20.78,1.73s15.26-1.63,18.26-3.45c3-1.83,7.91-9.15,7.91-9.15l3.55-9.76c.74-1.47,1.28-3.1,1.44-5.04l4.21-16.58c.54-2.38,1.05-4.76,1.4-7.16,1.25-8.57,3.6-12.43,4.4-21.07.92-9.95,1.88-19.9,2.77-29.85.23-2.62.97-3.46,3.62-3.31,1.13.06,2.26.31,3.37.58,6.32,1.51,12.6,3.2,18.96,4.56,23.81,5.08,47.63,10.07,71.47,14.99,1.2.25,2.81-.1,3.86-.76,4.91-3.09,9.59-6.55,14.55-9.55,5.14-3.11,7.32-8.3,7.66-13.44,1.63-24.74,2.59-49.53,3.83-74.3.48-9.66.83-19.33,1.69-28.96.49-5.52,2.69-10.86,2.03-16.55ZM85.15,62.17c.09,1.88-.79,2.68-2.52,3.04-3.87.81-7.71,1.74-11.58,2.58-1.34.29-2.23.77-2.23,2.38.03,12.4,0,24.8,0,37.19,0,.25.15.49.35,1.13,3.43-.74,6.87-1.49,10.76-2.33,0,4.17.09,7.92-.1,11.64-.03.56-1.31,1.28-2.14,1.55-2.09.67-4.22,1.3-6.38,1.6-2.2.3-2.6,1.45-2.61,3.41-.04,18.99-.15,37.99-.24,56.98-.02,3.52.05,7.04-.06,10.55-.07,2.18.37,3.07,2.85,2.33,3.44-1.03,7.01-1.68,10.53-2.45.82-.18,1.67-.22,2.85-.36,0,4.61.06,8.89-.07,13.17-.02.61-.93,1.58-1.58,1.73-11.37,2.7-22.77,5.29-34.16,7.9-.14.03-.32-.11-.88-.31,0-.79,0-1.72,0-2.65.17-48.8.35-97.6.44-146.41,0-2.51.75-3.51,3.21-4.04,10.39-2.27,20.74-4.71,31.08-7.19,1.96-.47,2.57.05,2.49,1.97-.09,2.19-.12,4.4-.01,6.59Zm81.08,127.45c-5.46.91-10.92,1.86-16.36,2.92-2.08.41-2.82-.07-2.81-2.31.07-20.14.05-40.28.04-60.42,0-19.61-.01-39.21-.02-58.81,0-4.13.04-8.27-.04-12.4-.02-.97.67-2.55-1.26-2.58-1.91-.03-1.88,1.37-1.91,2.77-.19,8.88-.37,17.76-.65,26.64-.5,15.91-1.07,31.81-1.59,47.72-.6,18.72-1.16,37.44-1.75,56.16-.03.97-.2,1.93-.19,2.89.02,1.6-.77,2.4-2.29,2.7-6.21,1.23-12.42,2.44-18.62,3.75-2.14.45-2.93-.05-2.98-2.42-.45-23.39-.93-46.78-1.58-70.16-.56-20.21-1.36-40.42-2.09-60.63-.03-.96.65-2.57-1.33-2.51-1.8.06-1.66,1.46-1.66,2.71-.08,25.42-.13,50.84-.24,76.26-.08,18.64-.25,37.29-.33,55.93,0,1.8-.34,3.03-2.34,3.45-5.85,1.22-11.68,2.54-17.53,3.8-.41.09-.85.01-1.62.01-.07-1.05-.22-2.05-.2-3.05.57-25.94,1.21-51.87,1.73-77.81.27-13.28.23-26.56.51-39.84.2-9.93.72-19.86,1-29.79.05-1.88.61-2.86,2.56-3.25,8.88-1.77,17.74-3.63,26.6-5.51,2.01-.43,2.79.06,2.89,2.3.98,21.51,2.06,43.02,3.14,64.52.51,10.27,1.07,20.54,1.64,30.8.06,1.16.35,2.32.53,3.47.34.01.68.03,1.01.04.19-.86.5-1.7.54-2.57,1.13-22.74,2.18-45.48,3.35-68.22.53-10.18,1.33-20.35,1.91-30.53.12-2.05.94-2.91,2.94-3.24,8.67-1.44,17.32-3.03,25.99-4.51,3.04-.52,3.32-.3,3.36,2.89.23,15.57.39,31.13.6,46.7.31,22.42.62,44.84,1,67.27.18,10.46.44,20.92.84,31.38.09,2.3-.77,3.15-2.83,3.49Zm219.36-85.02h.35c0-24.09,0-48.18,0-72.26,0-3.59.01-3.61,3.48-3.25,9.79,1.01,19.58,2.02,29.37,3.06,3.71.4,3.71.45,3.71,4.18,0,1.58-.11,3.18.03,4.74.2,2.27-.89,2.69-2.84,2.41-3.65-.52-7.33-.9-10.98-1.4-1.68-.23-2.42.3-2.41,2.09.03,11.6,0,23.21-.05,34.81,0,1.58.65,2.18,2.15,2.31,2.27.2,4.53.58,6.81.81,1.68.16,2.53.85,2.45,2.68-.11,2.63-.09,5.27-.02,7.91.04,1.64-.68,2.23-2.24,2.04-2.18-.26-4.39-.35-6.54-.76-2.07-.4-2.65.33-2.64,2.3.05,6.42,0,12.83-.02,19.25-.04,16.18-.03,32.35-.17,48.53-.02,2.32.65,3.33,3,3.52,3.41.28,6.8.9,10.21,1.2,2.21.19,3.05,1.14,2.95,3.37-.16,3.33-.12,6.68-.07,10.02.03,1.77-.67,2.27-2.41,2.06-10.29-1.24-20.59-2.47-30.91-3.53-2.61-.27-3.27-1.29-3.26-3.83.1-24.09.06-48.18.06-72.26Zm-210.54,79.93c.1-21.28.2-42.56.3-63.84.01-2.9,0-5.8,0-8.71h.14c0-24.18.03-48.36-.05-72.54,0-2.55.53-3.69,3.35-4.01,9.69-1.08,19.34-2.66,29.04-3.67,3.69-.39,7.62-.32,11.22.52,5.91,1.37,8.23,4.8,8.32,10.86.08,5.01.01,10.02,0,15.04-.03,18.11,0,36.23-.16,54.34-.02,2.75-.55,5.61-1.46,8.21-.59,1.69-2.01,3.5-3.56,4.38-6.02,3.42-12.47,4.58-19.2,2.22-2.41-.84-3.69-2.79-4.43-5.19-.23-.74-.95-1.34-1.45-2-.4.77-1.15,1.53-1.16,2.3-.14,10.29-.19,20.57-.25,30.86-.05,9.67-.15,19.35-.08,29.02.02,2.17-.78,2.91-2.82,3.16-4.71.59-9.39,1.36-14.09,2.08-3.66.56-3.67.58-3.65-3.04Zm55.89,106.96c-4.75,1.28-9.51,2.57-14.28,3.79-2.46.63-3.27.04-2.78-2.39,2.16-10.74.75-21.58,1.19-32.37.1-2.45-.62-3.32-3.17-2.89-2.68.45-5.43.64-8.15.67-2.25.02-2.84,1-2.79,3.07.11,4.48.03,8.97.03,13.46-.15.01-.3.03-.46.04.59,6.73,1.15,13.45,1.78,20.18.28,3-.27,3.95-3.26,4.61-4.55,1.01-9.11,1.96-13.68,2.86-2.75.54-3.7-.27-3.4-2.95,3.03-27.28.64-54.64,1.13-81.96.05-2.69-.62-5.4-1.08-8.08-.64-3.76.02-4.7,3.71-4.79,4.4-.11,8.8-.19,13.19-.21,2.77-.02,3.69.84,3.11,3.49-2.13,9.59-.78,19.29-1.17,28.93-.09,2.29.65,3.19,3.02,2.97,2.89-.26,5.8-.3,8.7-.31,1.66,0,2.45-.6,2.37-2.32-.45-9.55-.8-19.11-1.36-28.66-.19-3.19.26-3.94,3.51-3.82,4.48.17,8.96.43,13.45.49,2.43.03,3.39,1.13,3.13,3.42-2.61,23.68-.37,47.44-.97,71.15-.06,2.24.54,4.53,1,6.76.63,3.03.13,4.06-2.77,4.84Zm3.35-188.78h.36c0-19.95-.01-39.91,0-59.86,0-7.3,3.39-12,10.49-13.73,10.14-2.47,20.48-3.03,30.84-1.75,6.58.82,10.52,5.46,10.51,12.05-.04,39.82-.11,79.64-.24,119.46-.02,6.12-1.69,11.81-7.21,15.23-2.75,1.7-6.03,3-9.22,3.44-6.25.87-12.6,1.29-18.92,1.39-9.45.15-16.67-4.61-16.64-15.31.07-20.31.02-40.61.02-60.92Zm50.66,168.76c-5.57,7.49-13.11,11.88-22.35,13.14-10.79,1.47-19.15-4.07-22.94-15.11-.88-2.57-1.63-5.22-2.03-7.9-.63-4.25-.92-8.55-1.35-12.83.34-10.43,1.63-20.6,6.89-29.81,5.06-8.85,12.35-14.19,23.01-13.21,7.53.69,13.26,4.72,17.86,10.58,11.12,14.14,11.64,40.72.91,55.15Zm7.29-242.39c-.25-2.76.79-3.51,3.39-3.41,3.86.15,7.74.06,11.61-.09,2.06-.08,2.72.67,2.78,2.72.48,16.35,1.13,32.69,1.61,49.04.77,26.19,1.45,52.39,2.19,78.58.03,1.13-.47,2.77,1.44,2.82,1.9.05,1.55-1.58,1.58-2.73.62-19.51,1.18-39.02,1.83-58.53.41-12.04.96-24.07,1.45-36.11-.09,0-.17,0-.26-.01.43-11.07.91-22.14,1.24-33.22.06-2.02.81-2.56,2.68-2.5,8.18.28,16.35.49,24.53.67,2.09.05,2.88.88,2.94,3.04.5,21.19,1.1,42.37,1.64,63.56.55,21.45,1.08,42.9,1.63,64.35.03,1.31-.1,2.89,1.85,2.84,2-.05,1.66-1.74,1.68-2.98.27-12.05.39-24.1.77-36.14.95-30.32,2.03-60.64,2.98-90.96.07-2.2.77-2.97,2.95-2.78,4.38.38,8.77.61,13.16.89,1.59.1,2.27.69,2.14,2.49-1.07,15.26-2.08,30.52-3.04,45.78-1.09,17.45-2.15,34.91-3.15,52.37-.92,15.88-1.77,31.77-2.58,47.66-.09,1.83-.73,2.52-2.53,2.41-8.34-.5-16.68-.97-25.03-1.41-1.81-.1-2.57-.79-2.61-2.74-.41-21.81-.82-43.61-1.42-65.42-.5-18.37-1.22-36.74-1.94-55.1-.06-1.43.76-4.02-1.76-3.95-2.52.07-1.49,2.63-1.54,4.04-.87,23.2-1.64,46.4-2.42,69.6-.51,15.2-1.01,30.41-1.53,45.61-.04,1.14-.2,2.28-.25,3.42-.18,3.91.38,4.14-4.7,4.03-7.39-.15-14.78-.19-22.17-.15-1.96,0-2.79-.49-2.89-2.63-.8-18-1.65-36-2.61-54-.63-11.85-1.51-23.68-2.21-35.53-.69-11.58-1.26-23.17-1.95-34.75-.41-6.93-.87-13.86-1.49-20.78Zm59.5,219.58c-.17,7.25-.88,14.4-4.29,21-4.3,8.34-11.29,12.29-20.52,12.36-14.52.11-26.2-8.31-30.09-22.27-3.85-13.82-2.88-27.41,4.37-40.07,7-12.22,20.68-16.52,32.38-10.35,7.77,4.1,12.38,11,14.78,19.12,1.92,6.52,2.78,13.35,4.12,20.04l-.76.16Zm43.77,10.33c-3.69,8.59-9.75,11.94-18.96,10.25-2.43-.45-3.24.12-3.04,2.54.47,5.66.79,11.34,1.32,17,.23,2.48-.28,3.19-2.64,2.59-5.19-1.31-10.36-2.74-15.56-4.04-2.1-.52-2.48-1.8-2.26-3.74.47-4.17,1.09-8.35,1.11-12.53.1-16.34.06-32.69-.08-49.03-.03-3.39-.59-6.8-1.15-10.17-.53-3.17.01-4.01,3.2-4.07,5.89-.11,11.78-.14,17.66-.37,11.29-.45,18.65,4.88,21.59,16.36,1.32,5.15,1.8,10.51,2.67,15.78-.55,6.73-1.19,13.26-3.85,19.43Zm40.63,34.41c-5.73,11.02-15.61,13.62-26.1,7.01-6.8-4.29-10.96-10.54-11.64-18.53-.4-4.75.28-9.61.73-14.39.16-1.76,1.21-3.79,3.24-3.53,1.59.2,3.64,1.29,4.41,2.61,1.56,2.7,2.3,5.86,3.55,8.75,1.29,2.96,2.61,5.95,4.28,8.7,1.12,1.84,3.03,3.05,5.41,2.43,2.47-.65,3.02-2.73,3.26-4.91.42-3.74-.65-6.99-3.51-9.49-1.72-1.5-3.54-2.91-5.43-4.18-7.54-5.05-11.82-12.07-13.1-21.03-1.34-9.37-1.13-18.62,2.32-27.54,2.36-6.12,5.99-11.25,12.79-13.02,11.63-3.02,22.49,5.47,22.49,17.46,0,.79,0,1.58,0,2.37l.26.04c-.4,3.22-.59,6.48-1.27,9.64-.72,3.36-2.96,4-5.24,1.43-1.59-1.79-2.56-4.15-3.75-6.29-.94-1.69-1.64-3.53-2.74-5.1-1.99-2.84-4.99-2.45-6.26.79-1.33,3.38-.49,6.46,2.02,8.96,1.55,1.54,3.3,2.92,5.15,4.09,8.06,5.1,12.5,12.46,13.61,21.82,1.3,11.01.73,21.85-4.49,31.9Zm44.73-201.23c-.06,6.63-3.96,10.72-10.53,11.14-2.78.18-5.59-.06-8.38-.11-.9-.01-1.79,0-2.69,0-.04.24-.09.49-.13.73,1,.33,1.98.75,3.01.96,4.37.89,8.33,2.63,11.95,5.26,4.58,3.33,6.61,7.92,6.61,13.39-.01,22.61-.16,45.21-.17,67.82,0,2.44-.89,2.77-3.03,2.33-4.99-1.04-10.01-1.98-15.05-2.76-2.27-.35-3.06-1.27-3.05-3.61.14-24.28.14-48.55.32-72.83.02-2.61-.88-3.51-3.31-3.91-7.04-1.16-7.01-1.25-7.04,6-.09,22.87-.19,45.74-.29,68.61-.02,3.48-.03,3.44-3.36,2.9-4.86-.8-9.72-1.61-14.59-2.28-1.86-.26-2.45-1.08-2.45-2.94.14-48.91.24-97.81.31-146.72,0-1.89.4-2.74,2.54-2.4,10.33,1.64,20.71,3,31,4.85,3.65.65,7.26,2.08,10.59,3.75,5.37,2.69,7.72,7.59,7.78,13.41.12,12.14.06,24.28-.05,36.42Zm45.3-38.23c-.2,2.51-.04,5.05-.04,8.16-5.5-1.12-10.58-2.15-15.96-3.24-.09,1.16-.2,2.01-.21,2.85-.06,11.26-.05,22.51-.19,33.77-.03,2.31.54,3.4,3,3.91,8.35,1.75,8.33,1.86,8.32,10.44,0,.44-.04.88,0,1.32.21,2.11-.55,2.98-2.74,2.33-1.6-.47-3.24-.79-4.87-1.17-3.71-.88-3.72-.88-3.73,2.84-.05,14.6-.1,29.2-.14,43.79-.03,7.83.01,15.66-.12,23.48-.03,2.11.74,2.95,2.76,3.32,3.72.67,7.38,1.64,11.08,2.4,1.76.36,2.52,1.23,2.48,3.07-.09,4.01-.03,8.02-.03,12.43-2.82-.57-5.04-.99-7.25-1.46-8.95-1.88-17.88-3.81-26.84-5.62-2.01-.41-2.7-1.3-2.7-3.37.21-48.98.37-97.97.54-146.95,0-.77.1-1.55.18-2.62.97.05,1.82-.01,2.63.15,10.25,2.1,20.48,4.28,30.74,6.3,2.34.46,3.28,1.45,3.09,3.87Zm56.29,145.91c-.03,7.26-2.69,11.43-8.26,12.77-2.57.62-5.48.85-8.03.32-10.93-2.28-21.77-4.96-32.66-7.38-2.14-.47-2.78-1.45-2.77-3.61.21-48.98.35-97.97.5-146.95,0-.86.09-1.71.17-3.03,4.73,1.05,9.02,1.95,13.28,2.95,7.19,1.69,14.4,3.27,21.52,5.22,6.05,1.66,11.63,4.42,14.63,10.31,1.23,2.41,1.98,5.34,1.98,8.04-.02,40.45-.17,80.9-.36,121.36Z"/>
  <path class="cls-1" d="m555.1,69.91c-3.49-.97-3.57-.84-3.57,2.73,0,19.53,0,39.06,0,58.59h-.3c0,18.56-.06,37.12.03,55.68.04,8.1-1.52,5.95,6.53,8.19,3.64,1.01,3.71.87,3.72-2.85.13-37.91.29-75.83.37-113.74.02-8.52,1.3-6.37-6.76-8.6Z"/>
</svg>